<svg width="200" height="55" viewBox="0 0 200 55" fill="none" xmlns="http://www.w3.org/2000/svg">
<path d="M7.8728 28.9998C7.72023 28.9998 7.46848 28.9998 7.11756 28.9998C6.7819 28.9846 6.43861 28.9769 6.08769 28.9769C5.75203 28.9617 5.50028 28.9541 5.33245 28.9541C4.8137 28.9541 4.27969 28.9617 3.73043 28.9769C3.19642 28.9922 2.66241 28.9998 2.1284 28.9998V24.4226C2.66241 24.4226 3.19642 24.4303 3.73043 24.4455C4.27969 24.4608 4.8137 24.4684 5.33245 24.4684C5.50028 24.4684 5.75203 24.4684 6.08769 24.4684C6.43861 24.4531 6.7819 24.4455 7.11756 24.4455C7.46848 24.4303 7.72023 24.4226 7.8728 24.4226H15.1048C15.2574 24.4226 15.5015 24.4303 15.8371 24.4455C16.1881 24.4455 16.539 24.4531 16.8899 24.4684C17.2408 24.4684 17.4926 24.4684 17.6451 24.4684C18.1791 24.4684 18.7132 24.4608 19.2472 24.4455C19.7812 24.4303 20.3075 24.4226 20.8263 24.4226V28.9998C20.3075 28.9998 19.7812 28.9922 19.2472 28.9769C18.7132 28.9617 18.1791 28.9541 17.6451 28.9541C17.4926 28.9541 17.2408 28.9617 16.8899 28.9769C16.539 28.9769 16.1881 28.9846 15.8371 28.9998C15.5015 28.9998 15.2574 28.9998 15.1048 28.9998H7.8728ZM5.37822 42.8459C4.95101 42.9222 4.49329 42.9756 4.00506 43.0061C3.51682 43.0366 3.06673 43.0519 2.65478 43.0519C2.2886 43.0519 1.85377 43.0366 1.35028 43.0061C0.846783 42.9756 0.396691 42.9222 0 42.8459V11.5836C0.396691 11.5073 0.846783 11.4539 1.35028 11.4234C1.85377 11.3928 2.2886 11.3776 2.65478 11.3776C3.06673 11.3776 3.51682 11.3928 4.00506 11.4234C4.49329 11.4539 4.95101 11.5073 5.37822 11.5836V21.0813C5.37822 21.7221 5.37059 22.2942 5.35533 22.7977C5.34008 23.286 5.33245 23.8428 5.33245 24.4684V28.9541C5.33245 29.5644 5.34008 30.1212 5.35533 30.6247C5.37059 31.1282 5.37822 31.7004 5.37822 32.3412V42.8459ZM17.5994 32.3412C17.5994 31.7004 17.607 31.1282 17.6223 30.6247C17.6375 30.1212 17.6451 29.5644 17.6451 28.9541V24.4684C17.6451 23.8428 17.6375 23.286 17.6223 22.7977C17.607 22.2942 17.5994 21.7221 17.5994 21.0813V11.5836C18.0113 11.5073 18.4538 11.4539 18.9268 11.4234C19.415 11.3928 19.8575 11.3776 20.2542 11.3776C20.6356 11.3776 21.078 11.3928 21.5815 11.4234C22.085 11.4539 22.5428 11.5073 22.9547 11.5836V42.8459C22.5428 42.9222 22.1003 42.9756 21.6273 43.0061C21.1543 43.0366 20.7119 43.0519 20.2999 43.0519C19.888 43.0519 19.4379 43.0366 18.9496 43.0061C18.4767 42.9756 18.0266 42.9222 17.5994 42.8459V32.3412Z" fill="#2B3674"/>
<path d="M54.0229 31.769C54.0229 34.3018 53.5423 36.4378 52.581 38.1771C51.6198 39.9165 50.2619 41.2362 48.5073 42.1364C46.768 43.0213 44.693 43.4638 42.2823 43.4638C39.8869 43.4638 37.8119 43.0213 36.0573 42.1364C34.318 41.2362 32.9677 39.9165 32.0065 38.1771C31.0453 36.4378 30.5647 34.3018 30.5647 31.769V11.6522L30.8622 11.3776H32.899C33.9671 11.3776 34.7376 11.6522 35.2105 12.2015C35.6988 12.7355 35.9429 13.5899 35.9429 14.7647V31.769C35.9429 34.195 36.4693 36.0335 37.522 37.2846C38.5748 38.5204 40.1615 39.1383 42.2823 39.1383C44.4336 39.1383 46.0356 38.5204 47.0884 37.2846C48.1412 36.0335 48.6675 34.195 48.6675 31.769V11.5836C49.0795 11.5073 49.5219 11.4539 49.9949 11.4234C50.4679 11.3928 50.8951 11.3776 51.2765 11.3776C51.658 11.3776 52.1081 11.3928 52.6268 11.4234C53.1456 11.4539 53.6109 11.5073 54.0229 11.5836V31.769Z" fill="#2B3674"/>
<path d="M63.1311 11.6064C63.7262 11.4996 64.367 11.4386 65.0536 11.4234C65.7554 11.3928 66.3199 11.3776 66.7471 11.3776C67.2049 11.3776 67.7389 11.3928 68.3492 11.4234C68.9595 11.4386 69.5621 11.4996 70.1572 11.6064L74.1851 25.3152C74.2766 25.6508 74.4063 26.1543 74.5742 26.8257C74.7573 27.497 74.9404 28.2217 75.1234 28.9998C75.3218 29.778 75.4972 30.5179 75.6498 31.2198C75.8024 31.9064 75.9016 32.4327 75.9473 32.7989H76.222C76.283 32.4327 76.3898 31.9064 76.5424 31.2198C76.7102 30.5179 76.8857 29.778 77.0687 28.9998C77.2671 28.2217 77.4502 27.497 77.618 26.8257C77.7858 26.1543 77.9232 25.6508 78.03 25.3152L82.0579 11.6064C82.6682 11.4996 83.2709 11.4386 83.8659 11.4234C84.4762 11.3928 85.0026 11.3776 85.445 11.3776C85.8875 11.3776 86.4444 11.3928 87.1157 11.4234C87.8023 11.4386 88.4507 11.4996 89.061 11.6064L91.487 42.7772C91.1055 42.8688 90.6631 42.9374 90.1596 42.9832C89.6713 43.0442 89.206 43.0747 88.7635 43.0747C88.3516 43.0747 87.9473 43.0595 87.5506 43.029C87.1691 42.9985 86.7801 42.9527 86.3834 42.8917L85.3993 26.9401C85.3382 26.0552 85.2848 25.0482 85.2391 23.9191C85.1933 22.7901 85.1475 21.6534 85.1018 20.5091C85.0712 19.3496 85.0483 18.3121 85.0331 17.3966H84.7585L78.8081 38.1085C78.4114 38.1695 77.9537 38.2153 77.4349 38.2458C76.9314 38.2763 76.4737 38.2916 76.0618 38.2916C75.6956 38.2916 75.2531 38.2763 74.7344 38.2458C74.2309 38.2153 73.7732 38.1695 73.3612 38.1085L67.4337 17.3966H67.182C67.1515 18.3121 67.1133 19.3496 67.0676 20.5091C67.037 21.6534 66.9989 22.7901 66.9531 23.9191C66.9073 25.0482 66.8616 26.0552 66.8158 26.9401L65.7859 42.8917C65.4045 42.9527 65.0078 42.9985 64.5959 43.029C64.1992 43.0595 63.7948 43.0747 63.3829 43.0747C62.9557 43.0747 62.4903 43.0442 61.9868 42.9832C61.4986 42.9374 61.0714 42.8688 60.7052 42.7772L63.1311 11.6064Z" fill="#2B3674"/>
<path d="M152.163 16.0921C152.087 15.6954 152.033 15.3064 152.003 14.9249C151.987 14.5282 151.98 14.1697 151.98 13.8493C151.98 13.5136 151.987 13.1551 152.003 12.7736C152.033 12.3769 152.087 11.9802 152.163 11.5836H173.538C173.63 11.8734 173.699 12.2091 173.744 12.5905C173.79 12.972 173.813 13.3382 173.813 13.6891C173.813 14.5587 173.577 15.1767 173.104 15.5428C172.631 15.909 171.891 16.0921 170.884 16.0921H168.206C167.901 16.0921 167.458 16.0845 166.879 16.0692C166.299 16.054 165.849 16.0463 165.528 16.0463H160.15C159.845 16.0463 159.402 16.054 158.823 16.0692C158.243 16.0845 157.793 16.0921 157.472 16.0921H152.163ZM160.15 19.4335C160.15 18.8079 160.15 18.251 160.15 17.7628C160.165 17.2593 160.173 16.6871 160.173 16.0463V13.8264H165.505V16.0463C165.505 16.6871 165.505 17.2593 165.505 17.7628C165.521 18.251 165.528 18.8079 165.528 19.4335V42.8459C165.101 42.9222 164.643 42.9756 164.155 43.0061C163.682 43.0366 163.247 43.0519 162.851 43.0519C162.454 43.0519 162.011 43.0366 161.523 43.0061C161.05 42.9756 160.592 42.9222 160.15 42.8459V19.4335Z" fill="#2B3674"/>
<path d="M195.011 11.5836C195.377 11.5073 195.758 11.4539 196.155 11.4234C196.552 11.3928 196.941 11.3776 197.322 11.3776C197.704 11.3776 198.123 11.4081 198.581 11.4691C199.054 11.5302 199.458 11.6064 199.794 11.698L200 12.0642L191.029 42.8688C190.388 42.9298 189.709 42.9756 188.992 43.0061C188.275 43.0519 187.565 43.0747 186.863 43.0747C185.841 43.0747 185.048 42.8993 184.483 42.5484C183.919 42.1975 183.492 41.5261 183.202 40.5344L174.94 12.0642C175.443 11.8353 175.97 11.6446 176.519 11.492C177.068 11.3242 177.633 11.2403 178.213 11.2403C178.96 11.2403 179.563 11.4386 180.02 11.8353C180.493 12.232 180.86 12.9109 181.119 13.8722L185.628 29.6864C185.841 30.4645 186.062 31.319 186.291 32.2496C186.52 33.1651 186.741 34.0882 186.955 35.0189C187.184 35.9496 187.39 36.8345 187.573 37.6736C187.649 37.9788 187.786 38.1314 187.985 38.1314L195.011 11.5836Z" fill="#2B3674"/>
<path d="M138.236 25.6778C135.715 32.1269 130.213 34.3683 125.374 35.9366L123.764 38.4314C138.283 36.4778 141.264 25.7398 141.749 19.5108C141.233 10.4136 134.241 5.70603 134.241 5.70603C134.241 5.70603 143.035 13.3975 138.236 25.6778Z" fill="url(#paint0_linear_208_2175)"/>
<path d="M136.416 24.8577C134.1 29.5129 129.968 32.8097 125.924 35.0752L125.368 35.9378C130.207 34.3695 135.709 32.1282 138.229 25.6791C143.029 13.3987 134.235 5.70726 134.235 5.70726C134.235 5.70726 141.849 13.9362 136.416 24.8577Z" fill="url(#paint1_linear_208_2175)"/>
<path d="M136.416 24.8577C134.1 29.5129 129.968 32.8097 125.924 35.0752L125.368 35.9378C130.207 34.3695 135.709 32.1282 138.229 25.6791C143.029 13.3987 134.235 5.70726 134.235 5.70726C134.235 5.70726 141.849 13.9362 136.416 24.8577Z" fill="url(#paint2_linear_208_2175)"/>
<path d="M141.749 19.5126C141.882 21.8592 141.585 24.4973 140.626 27.4229C135.946 41.6898 123.336 39.0964 123.336 39.0964L123.764 38.4332C123.643 38.4497 123.524 38.4683 123.401 38.4836L122.352 40.5754C132.425 39.9415 138.462 34.2743 141.246 30.8055C143.823 25.2429 143.25 19.4462 141.712 15.0369C141.712 15.0369 141.955 16.8682 141.749 19.5126Z" fill="url(#paint3_linear_208_2175)"/>
<path d="M123.757 38.4325L123.329 39.0956C123.329 39.0956 135.939 41.6891 140.619 27.4221C141.578 24.4966 141.875 21.8585 141.742 19.5119C141.257 25.7408 138.276 36.4788 123.757 38.4325Z" fill="url(#paint4_linear_208_2175)"/>
<path d="M123.757 38.4325L123.329 39.0956C123.329 39.0956 135.939 41.6891 140.619 27.4221C141.578 24.4966 141.875 21.8585 141.742 19.5119C141.257 25.7408 138.276 36.4788 123.757 38.4325Z" fill="url(#paint5_linear_208_2175)"/>
<path d="M136.006 40.2695C128.829 47.3337 120 47.2633 120 47.2633L120.016 47.1774C119.961 47.1871 119.907 47.1981 119.851 47.2078L119.928 50.3624C119.928 50.3624 137.087 49.4857 143.092 33.1914C143.092 33.1914 140.789 36.6935 136.006 40.2695Z" fill="url(#paint6_linear_208_2175)"/>
<path d="M121.016 43.7914L121.594 42.399C121.378 42.387 121.161 42.3724 120.942 42.3535L120.023 47.1792C126.949 45.9438 132.249 43.0852 136.013 40.2713C138.848 37.4811 141.425 33.5789 143.099 28.1182C143.099 28.1182 137.474 43.8346 121.016 43.7914Z" fill="url(#paint7_linear_208_2175)"/>
<path d="M120.018 47.1785L120.002 47.2644C120.002 47.2644 128.831 47.3348 136.008 40.2706C132.244 43.0845 126.944 45.9431 120.018 47.1785Z" fill="url(#paint8_linear_208_2175)"/>
<path d="M120.018 47.1785L120.002 47.2644C120.002 47.2644 128.831 47.3348 136.008 40.2706C132.244 43.0845 126.944 45.9431 120.018 47.1785Z" fill="url(#paint9_linear_208_2175)"/>
<path d="M141.244 30.8041C140.799 31.7629 140.26 32.7144 139.617 33.6509C141.979 30.6877 143.096 28.1162 143.096 28.1162C143.096 28.1162 142.503 29.2354 141.244 30.8041Z" fill="url(#paint10_linear_208_2175)"/>
<path d="M122.35 40.5745L121.593 42.3975C128.328 42.7728 133.361 39.9058 136.859 36.6437C131.267 40.9631 122.35 40.5745 122.35 40.5745Z" fill="url(#paint11_linear_208_2175)"/>
<path d="M122.352 40.5747C122.352 40.5747 131.268 40.9633 136.86 36.6439C137.919 35.6562 138.838 34.6328 139.62 33.6517C140.263 32.7152 140.802 31.7637 141.246 30.8049C138.462 34.2736 132.425 39.9409 122.352 40.5747Z" fill="url(#paint12_linear_208_2175)"/>
<path d="M122.352 40.5747C122.352 40.5747 131.268 40.9633 136.86 36.6439C137.919 35.6562 138.838 34.6328 139.62 33.6517C140.263 32.7152 140.802 31.7637 141.246 30.8049C138.462 34.2736 132.425 39.9409 122.352 40.5747Z" fill="url(#paint13_linear_208_2175)"/>
<path d="M139.619 33.6516C139.424 33.9355 139.223 34.2181 139.009 34.499C138.383 35.3191 137.655 36.029 136.859 36.6439C133.362 39.9059 128.329 42.773 121.593 42.3977L121.015 43.7901C137.473 43.8333 143.098 28.1169 143.098 28.1169C143.098 28.1169 141.98 30.6884 139.619 33.6516Z" fill="url(#paint14_linear_208_2175)"/>
<path d="M139.619 33.6516C139.424 33.9355 139.223 34.2181 139.009 34.499C138.383 35.3191 137.655 36.029 136.859 36.6439C133.362 39.9059 128.329 42.773 121.593 42.3977L121.015 43.7901C137.473 43.8333 143.098 28.1169 143.098 28.1169C143.098 28.1169 141.98 30.6884 139.619 33.6516Z" fill="url(#paint15_linear_208_2175)"/>
<path d="M136.857 36.6442C137.653 36.0294 138.382 35.3195 139.008 34.4993C139.222 34.2185 139.422 33.9359 139.617 33.6519C138.836 34.633 137.916 35.6565 136.857 36.6442Z" fill="url(#paint16_linear_208_2175)"/>
<path d="M136.857 36.6442C137.653 36.0294 138.382 35.3195 139.008 34.4993C139.222 34.2185 139.422 33.9359 139.617 33.6519C138.836 34.633 137.916 35.6565 136.857 36.6442Z" fill="url(#paint17_linear_208_2175)"/>
<path d="M136.857 36.6442C137.653 36.0294 138.382 35.3195 139.008 34.4993C139.222 34.2185 139.422 33.9359 139.617 33.6519C138.836 34.633 137.916 35.6565 136.857 36.6442Z" fill="url(#paint18_linear_208_2175)"/>
<path d="M127.031 31.3423L124.366 36.2588C124.697 36.1547 125.032 36.048 125.371 35.9383L125.927 35.0756C130.101 33.4304 135.013 30.2398 137.329 25.5844C142.762 14.6628 134.238 5.7077 134.238 5.7077C145.516 26.7518 127.031 31.3423 127.031 31.3423Z" fill="url(#paint19_linear_208_2175)"/>
<path d="M121.969 20.8867C120.196 21.1217 117.359 20.8912 115.305 23.1288C118.141 24.2903 122.644 23.7703 124.392 22.1184C124.392 22.1184 125.715 19.7284 122.787 18.5066C122.787 18.5066 124.014 20.6156 121.969 20.8867Z" fill="url(#paint20_linear_208_2175)"/>
<path d="M124.388 22.1201C122.641 23.7719 118.138 24.292 115.302 23.1304C115.188 23.2549 115.075 23.3852 114.966 23.5254C114.966 23.5254 111.516 24.0183 111.319 28.0602C111.319 28.0602 113.783 25.7928 116.248 26.7785C118.712 27.7643 118.219 30.5245 116.543 33.0876C114.868 35.6506 107.277 44.8186 123.247 54.775C123.247 54.775 118.999 50.3874 122.401 42.5988C125.803 34.8102 130.739 30.8202 124.233 24.0183C124.233 24.0183 126.862 23.2954 125.449 20.4365C125.449 20.4365 125.587 21.6272 124.388 22.1201Z" fill="url(#paint21_linear_208_2175)"/>
<path d="M114.964 23.5253C120.419 21.2251 128.963 27.6161 128.963 27.6161C127.415 25.464 126.137 23.2953 122.28 21.6873C121.376 21.3101 120.539 21.1597 119.779 21.1597C116.767 21.1599 114.964 23.5253 114.964 23.5253Z" fill="url(#paint22_linear_208_2175)"/>
<path d="M104.566 16.2641C103.318 27.5498 110.558 32.5076 114.706 34.3508C115.043 33.8349 115.347 33.4077 115.556 33.087C115.58 33.0499 115.603 33.0127 115.627 32.9757C112.151 32.0688 104.447 26.9249 106.752 15.0365C107.521 11.0739 110.367 4.47138 122.349 0.001297C122.349 0.001297 106.088 2.50581 104.566 16.2641Z" fill="url(#paint23_linear_208_2175)"/>
<path d="M105.623 7.31585C101.242 12.2953 99.4891 20.2649 101.946 25.2033C104.196 29.7265 109.886 33.395 113.892 35.6974C114.166 35.1962 114.445 34.7478 114.705 34.3504C110.557 32.5071 103.316 27.5493 104.565 16.2637C106.086 2.50535 122.348 0.000835419 122.348 0.000835419C122.348 0.000835419 122.312 -1.52588e-05 122.245 -1.52588e-05C121.167 -1.52588e-05 111.875 0.209911 105.623 7.31585Z" fill="url(#paint24_linear_208_2175)"/>
<path d="M97.1831 20.7382C97.9213 26.7045 101.058 35.5443 112.854 38.0551C113.099 37.318 113.4 36.639 113.718 36.0267C108.891 34.4513 104.047 32.2293 101.478 25.6562C96.6784 13.3759 106.637 2.71171 106.637 2.71171C106.637 2.71171 97.4613 10.01 97.1831 20.7382Z" fill="url(#paint25_linear_208_2175)"/>
<path d="M101.48 25.6569C104.049 32.23 108.894 34.4519 113.721 36.0274C113.779 35.9153 113.837 35.8053 113.896 35.6977C109.891 33.3953 104.638 29.381 102.388 24.8578C96.9547 13.9363 106.64 2.7124 106.64 2.7124C106.64 2.7124 96.6808 13.3766 101.48 25.6569Z" fill="url(#paint26_linear_208_2175)"/>
<path d="M101.48 25.6569C104.049 32.23 108.894 34.4519 113.721 36.0274C113.779 35.9153 114.589 34.552 114.648 34.4445C110.642 32.1422 105.773 28.9108 103.523 24.3875C98.0898 13.4659 106.64 2.7124 106.64 2.7124C106.64 2.7124 96.6808 13.3766 101.48 25.6569Z" fill="url(#paint27_linear_208_2175)"/>
<path d="M97.5643 30.8048C99.9509 33.7787 104.73 38.3672 112.393 40.0158C112.429 39.7611 112.474 39.5114 112.527 39.2664C108.507 39.1055 101.435 37.3289 98.185 27.4221C97.4173 25.0814 97.1311 22.8444 97.1859 20.7386C96.779 17.4512 97.099 15.0362 97.099 15.0362C95.5604 19.4455 94.9874 25.2422 97.5643 30.8048Z" fill="url(#paint28_linear_208_2175)"/>
<path d="M98.1809 27.4229C101.431 37.3297 108.503 39.1062 112.523 39.2672C112.613 38.8483 112.725 38.4441 112.853 38.0562C101.057 35.5454 97.92 26.7056 97.1818 20.7393C97.127 22.8451 97.4132 25.0822 98.1809 27.4229Z" fill="url(#paint29_linear_208_2175)"/>
<path d="M98.1809 27.4229C101.431 37.3297 108.503 39.1062 112.523 39.2672C112.613 38.8483 112.725 38.4441 112.853 38.0562C101.057 35.5454 97.92 26.7056 97.1818 20.7393C97.127 22.8451 97.4132 25.0822 98.1809 27.4229Z" fill="url(#paint30_linear_208_2175)"/>
<path d="M106.752 45.6248C108.921 46.7061 111.554 47.6493 114.644 48.1307C114.192 47.506 113.813 46.8909 113.504 46.2871C111.203 45.6708 108.408 44.5731 105.652 42.6195C102.566 41.2398 100.987 39.5379 100.987 39.5379C102.403 42.2364 104.492 44.1979 106.752 45.6248Z" fill="url(#paint31_linear_208_2175)"/>
<path d="M115.23 48.8949C115.02 48.638 114.826 48.3828 114.642 48.1292C111.552 47.6477 108.919 46.7046 106.75 45.6233C109.653 47.4562 112.836 48.4061 115.23 48.8949Z" fill="url(#paint32_linear_208_2175)"/>
<path d="M115.23 48.8949C115.02 48.638 114.826 48.3828 114.642 48.1292C111.552 47.6477 108.919 46.7046 106.75 45.6233C109.653 47.4562 112.836 48.4061 115.23 48.8949Z" fill="url(#paint33_linear_208_2175)"/>
<path d="M113.507 46.2857C113.161 45.6117 112.901 44.9521 112.71 44.3089C109.84 44.1383 107.483 43.4352 105.655 42.6181C108.411 44.5717 111.206 45.6694 113.507 46.2857Z" fill="url(#paint34_linear_208_2175)"/>
<path d="M105.651 42.6181C108.407 44.5717 111.202 45.6694 113.503 46.2857C113.158 45.6117 112.897 44.9521 112.707 44.3089C112.608 43.975 112.528 43.6454 112.466 43.3208C100.839 41.0125 95.7065 28.1165 95.7065 28.1165C97.9309 35.3738 101.751 39.8529 105.651 42.6181Z" fill="url(#paint35_linear_208_2175)"/>
<path d="M99.1923 33.6514C99.974 34.6323 100.893 35.6557 101.952 36.6433C105.093 39.0694 109.281 40.0098 112.35 40.3686C112.363 40.2498 112.378 40.1321 112.394 40.0154C104.732 38.3668 99.9525 33.7783 97.5659 30.8044C98.0099 31.7634 98.5497 32.7149 99.1923 33.6514Z" fill="url(#paint36_linear_208_2175)"/>
<path d="M112.466 43.321C112.385 42.9 112.333 42.4871 112.307 42.0829C107.966 41.2561 104.535 39.0586 101.946 36.6434C101.15 36.0288 100.421 35.3189 99.7952 34.4987C99.581 34.218 99.3803 33.9353 99.1857 33.6515C96.8242 30.6882 95.7065 28.1167 95.7065 28.1167C95.7065 28.1167 100.839 41.0126 112.466 43.321Z" fill="url(#paint37_linear_208_2175)"/>
<path d="M99.7966 34.4995C100.422 35.3196 101.151 36.0296 101.947 36.6442C100.888 35.6566 99.9687 34.6332 99.187 33.6523C99.3816 33.936 99.5824 34.2188 99.7966 34.4995Z" fill="url(#paint38_linear_208_2175)"/>
<path d="M99.7966 34.4995C100.422 35.3196 101.151 36.0296 101.947 36.6442C100.888 35.6566 99.9687 34.6332 99.187 33.6523C99.3816 33.936 99.5824 34.2188 99.7966 34.4995Z" fill="url(#paint39_linear_208_2175)"/>
<path d="M112.466 43.321C112.385 42.9 112.333 42.4871 112.307 42.0829C112.269 41.4917 112.285 40.9196 112.344 40.3687C112.356 40.25 112.371 40.1323 112.388 40.0156C104.725 38.3669 99.9459 33.7784 97.5593 30.8046C96.3003 29.2359 95.7065 28.1167 95.7065 28.1167C95.7065 28.1167 100.839 41.0126 112.466 43.321Z" fill="url(#paint40_linear_208_2175)"/>
<defs>
<linearGradient id="paint0_linear_208_2175" x1="125.193" y1="21.663" x2="141.589" y2="23.4097" gradientUnits="userSpaceOnUse">
<stop stop-color="#EE1A35"/>
<stop offset="1" stop-color="#FFEB47"/>
</linearGradient>
<linearGradient id="paint1_linear_208_2175" x1="125.328" y1="20.346" x2="141.723" y2="22.0927" gradientUnits="userSpaceOnUse">
<stop stop-color="#EE1A35"/>
<stop offset="1" stop-color="#FFEB47"/>
</linearGradient>
<linearGradient id="paint2_linear_208_2175" x1="123.269" y1="20.1266" x2="144.462" y2="22.3846" gradientUnits="userSpaceOnUse">
<stop stop-color="#FFEB47"/>
<stop offset="1" stop-color="#EE1A35"/>
</linearGradient>
<linearGradient id="paint3_linear_208_2175" x1="123.806" y1="26.9298" x2="142.466" y2="28.9178" gradientUnits="userSpaceOnUse">
<stop stop-color="#FFEB47"/>
<stop offset="1" stop-color="#EE1A35"/>
</linearGradient>
<linearGradient id="paint4_linear_208_2175" x1="124.463" y1="28.4568" x2="140.857" y2="30.2035" gradientUnits="userSpaceOnUse">
<stop stop-color="#EE1A35"/>
<stop offset="1" stop-color="#FFEB47"/>
</linearGradient>
<linearGradient id="paint5_linear_208_2175" x1="123.645" y1="28.3698" x2="142.307" y2="30.3579" gradientUnits="userSpaceOnUse">
<stop stop-color="#FFEB47"/>
<stop offset="1" stop-color="#EE1A35"/>
</linearGradient>
<linearGradient id="paint6_linear_208_2175" x1="120.554" y1="40.6097" x2="142.058" y2="42.9007" gradientUnits="userSpaceOnUse">
<stop stop-color="#FFEB47"/>
<stop offset="1" stop-color="#EE1A35"/>
</linearGradient>
<linearGradient id="paint7_linear_208_2175" x1="148.836" y1="21.9305" x2="114.472" y2="54.646" gradientUnits="userSpaceOnUse">
<stop stop-color="#FFEB47"/>
<stop offset="1" stop-color="#EE1A35"/>
</linearGradient>
<linearGradient id="paint8_linear_208_2175" x1="120.307" y1="42.9475" x2="141.811" y2="45.2385" gradientUnits="userSpaceOnUse">
<stop stop-color="#FFEB47"/>
<stop offset="1" stop-color="#EE1A35"/>
</linearGradient>
<linearGradient id="paint9_linear_208_2175" x1="149.819" y1="22.9673" x2="115.455" y2="55.6827" gradientUnits="userSpaceOnUse">
<stop stop-color="#FFEB47"/>
<stop offset="1" stop-color="#EE1A35"/>
</linearGradient>
<linearGradient id="paint10_linear_208_2175" x1="121.54" y1="28.7723" x2="142.785" y2="31.0357" gradientUnits="userSpaceOnUse">
<stop stop-color="#FFEB47"/>
<stop offset="1" stop-color="#EE1A35"/>
</linearGradient>
<linearGradient id="paint11_linear_208_2175" x1="120.496" y1="38.5904" x2="141.741" y2="40.8539" gradientUnits="userSpaceOnUse">
<stop stop-color="#EE1A35"/>
<stop offset="1" stop-color="#FFEB47"/>
</linearGradient>
<linearGradient id="paint12_linear_208_2175" x1="122.973" y1="34.7495" x2="141.634" y2="36.7377" gradientUnits="userSpaceOnUse">
<stop stop-color="#FFEB47"/>
<stop offset="1" stop-color="#EE1A35"/>
</linearGradient>
<linearGradient id="paint13_linear_208_2175" x1="120.93" y1="34.5318" x2="142.175" y2="36.7953" gradientUnits="userSpaceOnUse">
<stop stop-color="#FFEB47"/>
<stop offset="1" stop-color="#EE1A35"/>
</linearGradient>
<linearGradient id="paint14_linear_208_2175" x1="148.488" y1="21.5649" x2="114.124" y2="54.2804" gradientUnits="userSpaceOnUse">
<stop stop-color="#FFEB47"/>
<stop offset="1" stop-color="#EE1A35"/>
</linearGradient>
<linearGradient id="paint15_linear_208_2175" x1="120.904" y1="34.7652" x2="142.149" y2="37.0287" gradientUnits="userSpaceOnUse">
<stop stop-color="#FFEB47"/>
<stop offset="1" stop-color="#EE1A35"/>
</linearGradient>
<linearGradient id="paint16_linear_208_2175" x1="123.099" y1="33.5353" x2="141.76" y2="35.5234" gradientUnits="userSpaceOnUse">
<stop stop-color="#FFEB47"/>
<stop offset="1" stop-color="#EE1A35"/>
</linearGradient>
<linearGradient id="paint17_linear_208_2175" x1="150.42" y1="23.596" x2="116.056" y2="56.3114" gradientUnits="userSpaceOnUse">
<stop stop-color="#FFEB47"/>
<stop offset="1" stop-color="#EE1A35"/>
</linearGradient>
<linearGradient id="paint18_linear_208_2175" x1="121.056" y1="33.3176" x2="142.301" y2="35.581" gradientUnits="userSpaceOnUse">
<stop stop-color="#FFEB47"/>
<stop offset="1" stop-color="#EE1A35"/>
</linearGradient>
<linearGradient id="paint19_linear_208_2175" x1="123.043" y1="20.3165" x2="145.807" y2="22.7417" gradientUnits="userSpaceOnUse">
<stop stop-color="#EE1A35"/>
<stop offset="1" stop-color="#FFEB47"/>
</linearGradient>
<linearGradient id="paint20_linear_208_2175" x1="111.322" y1="21.131" x2="127.42" y2="21.131" gradientUnits="userSpaceOnUse">
<stop stop-color="#FFEB47"/>
<stop offset="1" stop-color="#EE1A35"/>
</linearGradient>
<linearGradient id="paint21_linear_208_2175" x1="119.628" y1="21.7392" x2="118.511" y2="54.4019" gradientUnits="userSpaceOnUse">
<stop stop-color="#FFEB47"/>
<stop offset="1" stop-color="#EE1A35"/>
</linearGradient>
<linearGradient id="paint22_linear_208_2175" x1="114.964" y1="24.388" x2="128.963" y2="24.388" gradientUnits="userSpaceOnUse">
<stop stop-color="#FFEB47"/>
<stop offset="1" stop-color="#EE1A35"/>
</linearGradient>
<linearGradient id="paint23_linear_208_2175" x1="107.513" y1="33.2965" x2="116.643" y2="1.08822" gradientUnits="userSpaceOnUse">
<stop stop-color="#FFEB47"/>
<stop offset="1" stop-color="#EE1A35"/>
</linearGradient>
<linearGradient id="paint24_linear_208_2175" x1="131.002" y1="16.4263" x2="89.6463" y2="20.8324" gradientUnits="userSpaceOnUse">
<stop stop-color="#FFEB47"/>
<stop offset="1" stop-color="#EE1A35"/>
</linearGradient>
<linearGradient id="paint25_linear_208_2175" x1="113.436" y1="19.9902" x2="97.1183" y2="21.7287" gradientUnits="userSpaceOnUse">
<stop stop-color="#FFEB47"/>
<stop offset="1" stop-color="#EE1A35"/>
</linearGradient>
<linearGradient id="paint26_linear_208_2175" x1="113.337" y1="19.0335" x2="97.0187" y2="20.772" gradientUnits="userSpaceOnUse">
<stop stop-color="#FFEB47"/>
<stop offset="1" stop-color="#EE1A35"/>
</linearGradient>
<linearGradient id="paint27_linear_208_2175" x1="119.288" y1="18.3995" x2="94.2691" y2="21.065" gradientUnits="userSpaceOnUse">
<stop stop-color="#EE1A35"/>
<stop offset="1" stop-color="#FFEB47"/>
</linearGradient>
<linearGradient id="paint28_linear_208_2175" x1="114.952" y1="26.4386" x2="96.2913" y2="28.4267" gradientUnits="userSpaceOnUse">
<stop stop-color="#FFEB47"/>
<stop offset="1" stop-color="#EE1A35"/>
</linearGradient>
<linearGradient id="paint29_linear_208_2175" x1="114.393" y1="28.9867" x2="98.0754" y2="30.7252" gradientUnits="userSpaceOnUse">
<stop stop-color="#FFEB47"/>
<stop offset="1" stop-color="#EE1A35"/>
</linearGradient>
<linearGradient id="paint30_linear_208_2175" x1="115.211" y1="28.8996" x2="96.5493" y2="30.8878" gradientUnits="userSpaceOnUse">
<stop stop-color="#EE1A35"/>
<stop offset="1" stop-color="#FFEB47"/>
</linearGradient>
<linearGradient id="paint31_linear_208_2175" x1="118.293" y1="42.7179" x2="101.516" y2="44.5054" gradientUnits="userSpaceOnUse">
<stop stop-color="#FFEB47"/>
<stop offset="1" stop-color="#EE1A35"/>
</linearGradient>
<linearGradient id="paint32_linear_208_2175" x1="118.73" y1="46.4344" x2="100.141" y2="48.4148" gradientUnits="userSpaceOnUse">
<stop stop-color="#FFEB47"/>
<stop offset="1" stop-color="#EE1A35"/>
</linearGradient>
<linearGradient id="paint33_linear_208_2175" x1="118.688" y1="46.4388" x2="101.911" y2="48.2262" gradientUnits="userSpaceOnUse">
<stop stop-color="#FFEB47"/>
<stop offset="1" stop-color="#EE1A35"/>
</linearGradient>
<linearGradient id="paint34_linear_208_2175" x1="118.381" y1="43.5142" x2="101.604" y2="45.3017" gradientUnits="userSpaceOnUse">
<stop stop-color="#FFEB47"/>
<stop offset="1" stop-color="#EE1A35"/>
</linearGradient>
<linearGradient id="paint35_linear_208_2175" x1="83.2748" y1="37.2011" x2="133.539" y2="37.2011" gradientUnits="userSpaceOnUse">
<stop stop-color="#FFEB47"/>
<stop offset="1" stop-color="#EE1A35"/>
</linearGradient>
<linearGradient id="paint36_linear_208_2175" x1="115.806" y1="34.4308" x2="97.1445" y2="36.419" gradientUnits="userSpaceOnUse">
<stop stop-color="#FFEB47"/>
<stop offset="1" stop-color="#EE1A35"/>
</linearGradient>
<linearGradient id="paint37_linear_208_2175" x1="117.438" y1="34.2964" x2="96.6013" y2="36.5163" gradientUnits="userSpaceOnUse">
<stop stop-color="#FFEB47"/>
<stop offset="1" stop-color="#EE1A35"/>
</linearGradient>
<linearGradient id="paint38_linear_208_2175" x1="115.705" y1="33.5355" x2="97.0437" y2="35.5236" gradientUnits="userSpaceOnUse">
<stop stop-color="#FFEB47"/>
<stop offset="1" stop-color="#EE1A35"/>
</linearGradient>
<linearGradient id="paint39_linear_208_2175" x1="117.339" y1="33.3614" x2="96.503" y2="35.5812" gradientUnits="userSpaceOnUse">
<stop stop-color="#FFEB47"/>
<stop offset="1" stop-color="#EE1A35"/>
</linearGradient>
<linearGradient id="paint40_linear_208_2175" x1="-15.3586" y1="35.7189" x2="132.304" y2="35.7189" gradientUnits="userSpaceOnUse">
<stop stop-color="#FFEB47"/>
<stop offset="1" stop-color="#EE1A35"/>
</linearGradient>
</defs>
</svg>
