<svg width="600" height="55" viewBox="0 0 600 55" fill="none" xmlns="http://www.w3.org/2000/svg">
<path d="M107.373 28.9999C107.22 28.9999 106.968 28.9999 106.618 28.9999C106.282 28.9846 105.939 28.977 105.588 28.977C105.252 28.9617 105 28.9541 104.832 28.9541C104.314 28.9541 103.78 28.9617 103.23 28.977C102.696 28.9922 102.162 28.9999 101.628 28.9999V24.4227C102.162 24.4227 102.696 24.4303 103.23 24.4455C103.78 24.4608 104.314 24.4684 104.832 24.4684C105 24.4684 105.252 24.4684 105.588 24.4684C105.939 24.4532 106.282 24.4455 106.618 24.4455C106.968 24.4303 107.22 24.4227 107.373 24.4227H114.605C114.757 24.4227 115.001 24.4303 115.337 24.4455C115.688 24.4455 116.039 24.4532 116.39 24.4684C116.741 24.4684 116.993 24.4684 117.145 24.4684C117.679 24.4684 118.213 24.4608 118.747 24.4455C119.281 24.4303 119.808 24.4227 120.326 24.4227V28.9999C119.808 28.9999 119.281 28.9922 118.747 28.977C118.213 28.9617 117.679 28.9541 117.145 28.9541C116.993 28.9541 116.741 28.9617 116.39 28.977C116.039 28.977 115.688 28.9846 115.337 28.9999C115.001 28.9999 114.757 28.9999 114.605 28.9999H107.373ZM104.878 42.8459C104.451 42.9222 103.993 42.9756 103.505 43.0061C103.017 43.0366 102.567 43.0519 102.155 43.0519C101.789 43.0519 101.354 43.0366 100.85 43.0061C100.347 42.9756 99.8967 42.9222 99.5 42.8459V11.5836C99.8967 11.5073 100.347 11.4539 100.85 11.4234C101.354 11.3929 101.789 11.3776 102.155 11.3776C102.567 11.3776 103.017 11.3929 103.505 11.4234C103.993 11.4539 104.451 11.5073 104.878 11.5836V21.0813C104.878 21.7221 104.871 22.2943 104.855 22.7977C104.84 23.286 104.832 23.8429 104.832 24.4684V28.9541C104.832 29.5644 104.84 30.1213 104.855 30.6248C104.871 31.1283 104.878 31.7004 104.878 32.3412V42.8459ZM117.099 32.3412C117.099 31.7004 117.107 31.1283 117.122 30.6248C117.138 30.1213 117.145 29.5644 117.145 28.9541V24.4684C117.145 23.8429 117.138 23.286 117.122 22.7977C117.107 22.2943 117.099 21.7221 117.099 21.0813V11.5836C117.511 11.5073 117.954 11.4539 118.427 11.4234C118.915 11.3929 119.357 11.3776 119.754 11.3776C120.136 11.3776 120.578 11.3929 121.082 11.4234C121.585 11.4539 122.043 11.5073 122.455 11.5836V42.8459C122.043 42.9222 121.6 42.9756 121.127 43.0061C120.654 43.0366 120.212 43.0519 119.8 43.0519C119.388 43.0519 118.938 43.0366 118.45 43.0061C117.977 42.9756 117.527 42.9222 117.099 42.8459V32.3412Z" fill="#2B3674"/>
<path d="M153.523 31.7691C153.523 34.3018 153.042 36.4378 152.081 38.1772C151.12 39.9165 149.762 41.2363 148.007 42.1364C146.268 43.0214 144.193 43.4638 141.782 43.4638C139.387 43.4638 137.312 43.0214 135.557 42.1364C133.818 41.2363 132.468 39.9165 131.506 38.1772C130.545 36.4378 130.065 34.3018 130.065 31.7691V11.6522L130.362 11.3776H132.399C133.467 11.3776 134.238 11.6522 134.711 12.2015C135.199 12.7355 135.443 13.5899 135.443 14.7647V31.7691C135.443 34.195 135.969 36.0335 137.022 37.2846C138.075 38.5205 139.662 39.1384 141.782 39.1384C143.934 39.1384 145.536 38.5205 146.588 37.2846C147.641 36.0335 148.168 34.195 148.168 31.7691V11.5836C148.579 11.5073 149.022 11.4539 149.495 11.4234C149.968 11.3929 150.395 11.3776 150.777 11.3776C151.158 11.3776 151.608 11.3929 152.127 11.4234C152.646 11.4539 153.111 11.5073 153.523 11.5836V31.7691Z" fill="#2B3674"/>
<path d="M162.631 11.6065C163.226 11.4997 163.867 11.4386 164.554 11.4234C165.255 11.3929 165.82 11.3776 166.247 11.3776C166.705 11.3776 167.239 11.3929 167.849 11.4234C168.459 11.4386 169.062 11.4997 169.657 11.6065L173.685 25.3152C173.777 25.6509 173.906 26.1544 174.074 26.8257C174.257 27.497 174.44 28.2217 174.623 28.9999C174.822 29.778 174.997 30.518 175.15 31.2198C175.302 31.9064 175.402 32.4328 175.447 32.7989H175.722C175.783 32.4328 175.89 31.9064 176.042 31.2198C176.21 30.518 176.386 29.778 176.569 28.9999C176.767 28.2217 176.95 27.497 177.118 26.8257C177.286 26.1544 177.423 25.6509 177.53 25.3152L181.558 11.6065C182.168 11.4997 182.771 11.4386 183.366 11.4234C183.976 11.3929 184.503 11.3776 184.945 11.3776C185.388 11.3776 185.944 11.3929 186.616 11.4234C187.302 11.4386 187.951 11.4997 188.561 11.6065L190.987 42.7773C190.606 42.8688 190.163 42.9375 189.66 42.9832C189.171 43.0443 188.706 43.0748 188.264 43.0748C187.852 43.0748 187.447 43.0595 187.051 43.029C186.669 42.9985 186.28 42.9527 185.883 42.8917L184.899 26.9401C184.838 26.0552 184.785 25.0482 184.739 23.9192C184.693 22.7901 184.648 21.6534 184.602 20.5091C184.571 19.3496 184.548 18.3121 184.533 17.3966H184.258L178.308 38.1085C177.911 38.1695 177.454 38.2153 176.935 38.2458C176.431 38.2763 175.974 38.2916 175.562 38.2916C175.196 38.2916 174.753 38.2763 174.234 38.2458C173.731 38.2153 173.273 38.1695 172.861 38.1085L166.934 17.3966H166.682C166.651 18.3121 166.613 19.3496 166.568 20.5091C166.537 21.6534 166.499 22.7901 166.453 23.9192C166.407 25.0482 166.362 26.0552 166.316 26.9401L165.286 42.8917C164.904 42.9527 164.508 42.9985 164.096 43.029C163.699 43.0595 163.295 43.0748 162.883 43.0748C162.456 43.0748 161.99 43.0443 161.487 42.9832C160.999 42.9375 160.571 42.8688 160.205 42.7773L162.631 11.6065Z" fill="#2B3674"/>
<path d="M251.663 16.0921C251.587 15.6954 251.533 15.3064 251.503 14.9249C251.487 14.5283 251.48 14.1697 251.48 13.8493C251.48 13.5136 251.487 13.1551 251.503 12.7737C251.533 12.377 251.587 11.9803 251.663 11.5836H273.038C273.13 11.8735 273.199 12.2091 273.244 12.5906C273.29 12.972 273.313 13.3382 273.313 13.6891C273.313 14.5588 273.077 15.1767 272.604 15.5429C272.131 15.909 271.391 16.0921 270.384 16.0921H267.706C267.401 16.0921 266.958 16.0845 266.379 16.0692C265.799 16.054 265.349 16.0464 265.028 16.0464H259.65C259.345 16.0464 258.902 16.054 258.323 16.0692C257.743 16.0845 257.293 16.0921 256.972 16.0921H251.663ZM259.65 19.4335C259.65 18.8079 259.65 18.2511 259.65 17.7628C259.665 17.2593 259.673 16.6872 259.673 16.0464V13.8264H265.005V16.0464C265.005 16.6872 265.005 17.2593 265.005 17.7628C265.021 18.2511 265.028 18.8079 265.028 19.4335V42.8459C264.601 42.9222 264.143 42.9756 263.655 43.0061C263.182 43.0366 262.747 43.0519 262.351 43.0519C261.954 43.0519 261.511 43.0366 261.023 43.0061C260.55 42.9756 260.092 42.9222 259.65 42.8459V19.4335Z" fill="#2B3674"/>
<path d="M294.511 11.5836C294.877 11.5073 295.258 11.4539 295.655 11.4234C296.052 11.3929 296.441 11.3776 296.822 11.3776C297.204 11.3776 297.623 11.4081 298.081 11.4692C298.554 11.5302 298.958 11.6065 299.294 11.698L299.5 12.0642L290.529 42.8688C289.888 42.9298 289.209 42.9756 288.492 43.0061C287.775 43.0519 287.065 43.0748 286.363 43.0748C285.341 43.0748 284.548 42.8993 283.983 42.5484C283.419 42.1975 282.992 41.5262 282.702 40.5344L274.44 12.0642C274.943 11.8353 275.47 11.6446 276.019 11.492C276.568 11.3242 277.133 11.2403 277.713 11.2403C278.46 11.2403 279.063 11.4386 279.52 11.8353C279.993 12.232 280.36 12.911 280.619 13.8722L285.128 29.6864C285.341 30.4646 285.562 31.319 285.791 32.2497C286.02 33.1651 286.241 34.0882 286.455 35.0189C286.684 35.9496 286.89 36.8345 287.073 37.6737C287.149 37.9788 287.286 38.1314 287.485 38.1314L294.511 11.5836Z" fill="#2B3674"/>
<path d="M237.735 25.6778C235.215 32.1269 229.713 34.3682 224.874 35.9366L223.264 38.4314C237.783 36.4777 240.764 25.7397 241.249 19.5108C240.732 10.4136 233.741 5.706 233.741 5.706C233.741 5.706 242.534 13.3975 237.735 25.6778Z" fill="url(#paint0_linear_42_5069)"/>
<path d="M235.916 24.8578C233.6 29.5129 229.468 32.8097 225.424 35.0752L224.867 35.9379C229.706 34.3695 235.208 32.1282 237.729 25.6791C242.528 13.3988 233.735 5.70729 233.735 5.70729C233.735 5.70729 241.349 13.9362 235.916 24.8578Z" fill="url(#paint1_linear_42_5069)"/>
<path d="M235.916 24.8578C233.6 29.5129 229.468 32.8097 225.424 35.0752L224.867 35.9379C229.706 34.3695 235.208 32.1282 237.729 25.6791C242.528 13.3988 233.735 5.70729 233.735 5.70729C233.735 5.70729 241.349 13.9362 235.916 24.8578Z" fill="url(#paint2_linear_42_5069)"/>
<path d="M241.248 19.5126C241.382 21.8592 241.085 24.4973 240.125 27.4229C235.445 41.6898 222.836 39.0964 222.836 39.0964L223.263 38.4332C223.142 38.4497 223.024 38.4683 222.901 38.4836L221.852 40.5754C231.924 39.9415 237.962 34.2743 240.746 30.8055C243.322 25.2429 242.75 19.4462 241.211 15.0369C241.211 15.0369 241.454 16.8682 241.248 19.5126Z" fill="url(#paint3_linear_42_5069)"/>
<path d="M223.256 38.4325L222.828 39.0956C222.828 39.0956 235.438 41.6891 240.118 27.4221C241.077 24.4965 241.374 21.8585 241.241 19.5118C240.756 25.7408 237.775 36.4788 223.256 38.4325Z" fill="url(#paint4_linear_42_5069)"/>
<path d="M223.256 38.4325L222.828 39.0956C222.828 39.0956 235.438 41.6891 240.118 27.4221C241.077 24.4965 241.374 21.8585 241.241 19.5118C240.756 25.7408 237.775 36.4788 223.256 38.4325Z" fill="url(#paint5_linear_42_5069)"/>
<path d="M235.506 40.2695C228.328 47.3337 219.499 47.2633 219.499 47.2633L219.516 47.1774C219.46 47.1871 219.406 47.1981 219.351 47.2078L219.427 50.3624C219.427 50.3624 236.587 49.4857 242.592 33.1914C242.592 33.1914 240.289 36.6935 235.506 40.2695Z" fill="url(#paint6_linear_42_5069)"/>
<path d="M220.515 43.7914L221.094 42.399C220.878 42.3871 220.661 42.3724 220.441 42.3536L219.522 47.1792C226.448 45.9438 231.749 43.0853 235.512 40.2713C238.347 37.4811 240.925 33.5789 242.598 28.1182C242.598 28.1182 236.974 43.8346 220.515 43.7914Z" fill="url(#paint7_linear_42_5069)"/>
<path d="M219.517 47.1785L219.501 47.2644C219.501 47.2644 228.33 47.3349 235.507 40.2706C231.743 43.0846 226.443 45.9431 219.517 47.1785Z" fill="url(#paint8_linear_42_5069)"/>
<path d="M219.517 47.1785L219.501 47.2644C219.501 47.2644 228.33 47.3349 235.507 40.2706C231.743 43.0846 226.443 45.9431 219.517 47.1785Z" fill="url(#paint9_linear_42_5069)"/>
<path d="M240.743 30.8041C240.298 31.7629 239.759 32.7144 239.116 33.6509C241.478 30.6877 242.595 28.1162 242.595 28.1162C242.595 28.1162 242.002 29.2354 240.743 30.8041Z" fill="url(#paint10_linear_42_5069)"/>
<path d="M221.85 40.5745L221.093 42.3975C227.828 42.7728 232.861 39.9058 236.359 36.6437C230.767 40.9631 221.85 40.5745 221.85 40.5745Z" fill="url(#paint11_linear_42_5069)"/>
<path d="M221.852 40.5748C221.852 40.5748 230.768 40.9633 236.36 36.644C237.419 35.6562 238.338 34.6328 239.119 33.6517C239.762 32.7152 240.302 31.7637 240.746 30.8049C237.962 34.2737 231.924 39.9409 221.852 40.5748Z" fill="url(#paint12_linear_42_5069)"/>
<path d="M221.852 40.5748C221.852 40.5748 230.768 40.9633 236.36 36.644C237.419 35.6562 238.338 34.6328 239.119 33.6517C239.762 32.7152 240.302 31.7637 240.746 30.8049C237.962 34.2737 231.924 39.9409 221.852 40.5748Z" fill="url(#paint13_linear_42_5069)"/>
<path d="M239.119 33.6516C238.924 33.9356 238.723 34.2181 238.509 34.499C237.883 35.3192 237.155 36.0291 236.359 36.6439C232.862 39.9059 227.829 42.773 221.093 42.3977L220.515 43.7901C236.973 43.8333 242.598 28.1169 242.598 28.1169C242.598 28.1169 241.48 30.6885 239.119 33.6516Z" fill="url(#paint14_linear_42_5069)"/>
<path d="M239.119 33.6516C238.924 33.9356 238.723 34.2181 238.509 34.499C237.883 35.3192 237.155 36.0291 236.359 36.6439C232.862 39.9059 227.829 42.773 221.093 42.3977L220.515 43.7901C236.973 43.8333 242.598 28.1169 242.598 28.1169C242.598 28.1169 241.48 30.6885 239.119 33.6516Z" fill="url(#paint15_linear_42_5069)"/>
<path d="M236.357 36.6442C237.153 36.0293 237.882 35.3194 238.508 34.4993C238.722 34.2184 238.922 33.9358 239.117 33.6519C238.336 34.633 237.416 35.6564 236.357 36.6442Z" fill="url(#paint16_linear_42_5069)"/>
<path d="M236.357 36.6442C237.153 36.0293 237.882 35.3194 238.508 34.4993C238.722 34.2184 238.922 33.9358 239.117 33.6519C238.336 34.633 237.416 35.6564 236.357 36.6442Z" fill="url(#paint17_linear_42_5069)"/>
<path d="M236.357 36.6442C237.153 36.0293 237.882 35.3194 238.508 34.4993C238.722 34.2184 238.922 33.9358 239.117 33.6519C238.336 34.633 237.416 35.6564 236.357 36.6442Z" fill="url(#paint18_linear_42_5069)"/>
<path d="M226.531 31.3423L223.866 36.2588C224.197 36.1547 224.532 36.048 224.871 35.9383L225.427 35.0756C229.601 33.4304 234.513 30.2398 236.829 25.5844C242.262 14.6628 233.738 5.7077 233.738 5.7077C245.016 26.7518 226.531 31.3423 226.531 31.3423Z" fill="url(#paint19_linear_42_5069)"/>
<path d="M221.468 20.8867C219.695 21.1216 216.859 20.8911 214.805 23.1287C217.641 24.2903 222.144 23.7702 223.891 22.1184C223.891 22.1184 225.214 19.7284 222.287 18.5065C222.287 18.5065 223.514 20.6155 221.468 20.8867Z" fill="url(#paint20_linear_42_5069)"/>
<path d="M223.888 22.1201C222.14 23.7719 217.637 24.292 214.801 23.1304C214.687 23.2549 214.575 23.3852 214.466 23.5254C214.466 23.5254 211.016 24.0183 210.818 28.0602C210.818 28.0602 213.283 25.7928 215.747 26.7785C218.212 27.7643 217.719 30.5245 216.043 33.0876C214.367 35.6506 206.777 44.8186 222.746 54.775C222.746 54.775 218.499 50.3874 221.901 42.5988C225.303 34.8102 230.238 30.8202 223.732 24.0183C223.732 24.0183 226.361 23.2954 224.948 20.4365C224.948 20.4365 225.087 21.6272 223.888 22.1201Z" fill="url(#paint21_linear_42_5069)"/>
<path d="M214.464 23.5253C219.919 21.2251 228.462 27.6161 228.462 27.6161C226.914 25.464 225.636 23.2953 221.779 21.6873C220.875 21.3101 220.039 21.1597 219.279 21.1597C216.267 21.1599 214.464 23.5253 214.464 23.5253Z" fill="url(#paint22_linear_42_5069)"/>
<path d="M204.065 16.2641C202.817 27.5498 210.058 32.5076 214.206 34.3508C214.543 33.8349 214.846 33.4077 215.055 33.087C215.08 33.0499 215.103 33.0127 215.127 32.9757C211.65 32.0688 203.946 26.9249 206.252 15.0365C207.02 11.0739 209.867 4.47138 221.849 0.001297C221.849 0.001297 205.587 2.50581 204.065 16.2641Z" fill="url(#paint23_linear_42_5069)"/>
<path d="M205.123 7.31585C200.742 12.2953 198.989 20.2649 201.445 25.2033C203.695 29.7265 209.386 33.395 213.391 35.6974C213.666 35.1962 213.945 34.7478 214.204 34.3504C210.056 32.5071 202.816 27.5493 204.064 16.2637C205.586 2.50535 221.847 0.000835419 221.847 0.000835419C221.847 0.000835419 221.812 -1.52588e-05 221.744 -1.52588e-05C220.667 -1.52588e-05 211.375 0.209911 205.123 7.31585Z" fill="url(#paint24_linear_42_5069)"/>
<path d="M196.683 20.7382C197.421 26.7045 200.558 35.5443 212.354 38.0551C212.598 37.318 212.9 36.639 213.218 36.0268C208.391 34.4513 203.546 32.2293 200.977 25.6562C196.178 13.3759 206.137 2.71174 206.137 2.71174C206.137 2.71174 196.961 10.0101 196.683 20.7382Z" fill="url(#paint25_linear_42_5069)"/>
<path d="M200.98 25.6569C203.549 32.23 208.394 34.452 213.221 36.0275C213.279 35.9154 213.337 35.8053 213.396 35.6978C209.391 33.3954 204.138 29.381 201.888 24.8579C196.455 13.9363 206.14 2.71243 206.14 2.71243C206.14 2.71243 196.181 13.3766 200.98 25.6569Z" fill="url(#paint26_linear_42_5069)"/>
<path d="M200.98 25.6569C203.549 32.23 208.394 34.452 213.221 36.0275C213.279 35.9154 214.089 34.552 214.148 34.4445C210.142 32.1423 205.273 28.9108 203.023 24.3875C197.59 13.4659 206.14 2.71243 206.14 2.71243C206.14 2.71243 196.181 13.3766 200.98 25.6569Z" fill="url(#paint27_linear_42_5069)"/>
<path d="M197.063 30.8048C199.45 33.7787 204.229 38.3672 211.892 40.0158C211.928 39.7611 211.973 39.5114 212.026 39.2664C208.006 39.1055 200.934 37.3289 197.684 27.4221C196.916 25.0814 196.63 22.8444 196.685 20.7386C196.278 17.4512 196.598 15.0362 196.598 15.0362C195.059 19.4455 194.486 25.2422 197.063 30.8048Z" fill="url(#paint28_linear_42_5069)"/>
<path d="M197.68 27.4229C200.93 37.3297 208.002 39.1062 212.022 39.2672C212.112 38.8483 212.224 38.4441 212.353 38.0562C200.556 35.5454 197.419 26.7056 196.681 20.7393C196.627 22.8451 196.913 25.0822 197.68 27.4229Z" fill="url(#paint29_linear_42_5069)"/>
<path d="M197.68 27.4229C200.93 37.3297 208.002 39.1062 212.022 39.2672C212.112 38.8483 212.224 38.4441 212.353 38.0562C200.556 35.5454 197.419 26.7056 196.681 20.7393C196.627 22.8451 196.913 25.0822 197.68 27.4229Z" fill="url(#paint30_linear_42_5069)"/>
<path d="M206.251 45.6248C208.42 46.7061 211.053 47.6492 214.143 48.1307C213.691 47.506 213.312 46.8908 213.003 46.2871C210.702 45.6707 207.907 44.5731 205.151 42.6195C202.065 41.2398 200.486 39.5379 200.486 39.5379C201.902 42.2363 203.991 44.1978 206.251 45.6248Z" fill="url(#paint31_linear_42_5069)"/>
<path d="M214.73 48.8949C214.52 48.638 214.326 48.3828 214.142 48.1292C211.052 47.6477 208.419 46.7046 206.25 45.6233C209.153 47.4562 212.336 48.4061 214.73 48.8949Z" fill="url(#paint32_linear_42_5069)"/>
<path d="M214.73 48.8949C214.52 48.638 214.326 48.3828 214.142 48.1292C211.052 47.6477 208.419 46.7046 206.25 45.6233C209.153 47.4562 212.336 48.4061 214.73 48.8949Z" fill="url(#paint33_linear_42_5069)"/>
<path d="M213.006 46.2857C212.661 45.6117 212.4 44.9521 212.21 44.3089C209.34 44.1383 206.982 43.4352 205.154 42.6181C207.91 44.5717 210.705 45.6694 213.006 46.2857Z" fill="url(#paint34_linear_42_5069)"/>
<path d="M205.151 42.6181C207.907 44.5717 210.702 45.6694 213.003 46.2857C212.657 45.6117 212.397 44.9521 212.206 44.3089C212.107 43.975 212.027 43.6454 211.965 43.3208C200.339 41.0125 195.206 28.1165 195.206 28.1165C197.43 35.3738 201.251 39.8529 205.151 42.6181Z" fill="url(#paint35_linear_42_5069)"/>
<path d="M198.692 33.6514C199.473 34.6323 200.393 35.6557 201.452 36.6433C204.592 39.0694 208.781 40.0098 211.85 40.3686C211.863 40.2498 211.877 40.1321 211.894 40.0154C204.231 38.3668 199.452 33.7783 197.065 30.8044C197.509 31.7634 198.049 32.7149 198.692 33.6514Z" fill="url(#paint36_linear_42_5069)"/>
<path d="M211.965 43.321C211.884 42.8999 211.833 42.4871 211.807 42.0828C207.466 41.2561 204.034 39.0586 201.445 36.6434C200.649 36.0288 199.921 35.3189 199.295 34.4987C199.081 34.218 198.88 33.9353 198.685 33.6515C196.324 30.6882 195.206 28.1166 195.206 28.1166C195.206 28.1166 200.339 41.0126 211.965 43.321Z" fill="url(#paint37_linear_42_5069)"/>
<path d="M199.296 34.4995C199.922 35.3196 200.65 36.0295 201.446 36.6442C200.387 35.6566 199.468 34.6332 198.687 33.6523C198.881 33.936 199.082 34.2188 199.296 34.4995Z" fill="url(#paint38_linear_42_5069)"/>
<path d="M199.296 34.4995C199.922 35.3196 200.65 36.0295 201.446 36.6442C200.387 35.6566 199.468 34.6332 198.687 33.6523C198.881 33.936 199.082 34.2188 199.296 34.4995Z" fill="url(#paint39_linear_42_5069)"/>
<path d="M211.965 43.321C211.884 42.8999 211.833 42.4871 211.807 42.0828C211.769 41.4917 211.784 40.9196 211.843 40.3687C211.856 40.25 211.871 40.1322 211.887 40.0155C204.225 38.3669 199.445 33.7784 197.059 30.8045C195.8 29.2359 195.206 28.1166 195.206 28.1166C195.206 28.1166 200.339 41.0126 211.965 43.321Z" fill="url(#paint40_linear_42_5069)"/>
<rect x="323.5" y="14.3875" width="2" height="26" rx="1" fill="#A3AED0"/>
<path d="M352.094 41.3875V16.0075H363.938C366.794 16.0075 368.954 16.7035 370.418 18.0955C371.906 19.4635 372.65 21.3475 372.65 23.7475C372.65 26.1235 371.906 28.0195 370.418 29.4355C368.954 30.8275 366.794 31.5235 363.938 31.5235H357.71V41.3875H352.094ZM357.71 27.1675H363.218C364.562 27.1675 365.558 26.8675 366.206 26.2675C366.878 25.6675 367.214 24.8275 367.214 23.7475C367.214 22.6675 366.878 21.8395 366.206 21.2635C365.558 20.6635 364.562 20.3635 363.218 20.3635H357.71V27.1675ZM382.31 41.7835C380.726 41.7835 379.334 41.3995 378.134 40.6315C376.934 39.8635 375.998 38.7715 375.326 37.3555C374.654 35.9395 374.318 34.2355 374.318 32.2435C374.318 30.2755 374.654 28.5835 375.326 27.1675C375.998 25.7515 376.934 24.6715 378.134 23.9275C379.334 23.1595 380.726 22.7755 382.31 22.7755C383.774 22.7755 385.082 23.1355 386.234 23.8555C387.41 24.5515 388.178 25.4995 388.538 26.6995H388.142L388.574 23.1355H393.794C393.722 23.9275 393.65 24.7315 393.578 25.5475C393.53 26.3395 393.506 27.1195 393.506 27.8875V41.3875H388.106L388.07 37.9675H388.502C388.118 39.1195 387.35 40.0435 386.198 40.7395C385.046 41.4355 383.75 41.7835 382.31 41.7835ZM383.966 37.6795C385.214 37.6795 386.222 37.2355 386.99 36.3475C387.758 35.4595 388.142 34.0915 388.142 32.2435C388.142 30.3955 387.758 29.0395 386.99 28.1755C386.222 27.3115 385.214 26.8795 383.966 26.8795C382.718 26.8795 381.71 27.3115 380.942 28.1755C380.174 29.0395 379.79 30.3955 379.79 32.2435C379.79 34.0915 380.162 35.4595 380.906 36.3475C381.674 37.2355 382.694 37.6795 383.966 37.6795ZM397.928 41.3875V27.9595C397.928 27.1675 397.904 26.3635 397.856 25.5475C397.832 24.7315 397.772 23.9275 397.676 23.1355H402.896L403.508 28.4635H402.68C402.92 27.1675 403.304 26.0995 403.832 25.2595C404.384 24.4195 405.056 23.7955 405.848 23.3875C406.664 22.9795 407.588 22.7755 408.62 22.7755C409.076 22.7755 409.436 22.7995 409.7 22.8475C409.964 22.8715 410.228 22.9315 410.492 23.0275L410.456 27.8155C409.952 27.5995 409.52 27.4675 409.16 27.4195C408.824 27.3475 408.392 27.3115 407.864 27.3115C406.856 27.3115 406.016 27.5035 405.344 27.8875C404.696 28.2715 404.204 28.8355 403.868 29.5795C403.556 30.3235 403.4 31.2235 403.4 32.2795V41.3875H397.928ZM422.352 41.7835C419.976 41.7835 418.188 41.1955 416.988 40.0195C415.788 38.8195 415.188 37.0315 415.188 34.6555V27.2035H411.732V23.1355H415.188V18.6715L420.624 17.3395V23.1355H425.304V27.2035H420.624V34.3675C420.624 35.5195 420.864 36.3115 421.344 36.7435C421.824 37.1755 422.436 37.3915 423.18 37.3915C423.636 37.3915 424.008 37.3675 424.296 37.3195C424.608 37.2475 424.932 37.1515 425.268 37.0315V41.2435C424.812 41.4355 424.332 41.5675 423.828 41.6395C423.324 41.7355 422.832 41.7835 422.352 41.7835ZM428.093 41.3875V27.8875C428.093 27.1195 428.069 26.3395 428.021 25.5475C427.973 24.7315 427.901 23.9275 427.805 23.1355H433.025L433.421 26.5195H432.989C433.589 25.3195 434.441 24.3955 435.545 23.7475C436.649 23.0995 437.933 22.7755 439.397 22.7755C441.533 22.7755 443.129 23.3995 444.185 24.6475C445.265 25.8715 445.805 27.7795 445.805 30.3715V41.3875H440.369V30.6235C440.369 29.3035 440.129 28.3675 439.649 27.8155C439.169 27.2635 438.449 26.9875 437.489 26.9875C436.289 26.9875 435.329 27.3715 434.609 28.1395C433.889 28.8835 433.529 29.8915 433.529 31.1635V41.3875H428.093ZM459.351 41.7835C456.183 41.7835 453.711 40.9315 451.935 39.2275C450.159 37.5235 449.271 35.2075 449.271 32.2795C449.271 30.3835 449.643 28.7275 450.387 27.3115C451.155 25.8955 452.211 24.7915 453.555 23.9995C454.923 23.1835 456.519 22.7755 458.343 22.7755C460.143 22.7755 461.643 23.1595 462.843 23.9275C464.067 24.6955 464.979 25.7755 465.579 27.1675C466.203 28.5355 466.515 30.1315 466.515 31.9555V33.2155H453.735V30.5155H462.555L461.943 31.0195C461.943 29.5075 461.631 28.3675 461.007 27.5995C460.407 26.8075 459.531 26.4115 458.379 26.4115C457.107 26.4115 456.123 26.8795 455.427 27.8155C454.755 28.7515 454.419 30.0955 454.419 31.8475V32.4235C454.419 34.1995 454.851 35.5195 455.715 36.3835C456.603 37.2475 457.875 37.6795 459.531 37.6795C460.515 37.6795 461.439 37.5595 462.303 37.3195C463.191 37.0555 464.031 36.6475 464.823 36.0955L466.335 39.6955C465.423 40.3675 464.367 40.8835 463.167 41.2435C461.991 41.6035 460.719 41.7835 459.351 41.7835ZM469.928 41.3875V27.9595C469.928 27.1675 469.904 26.3635 469.856 25.5475C469.832 24.7315 469.772 23.9275 469.676 23.1355H474.896L475.508 28.4635H474.68C474.92 27.1675 475.304 26.0995 475.832 25.2595C476.384 24.4195 477.056 23.7955 477.848 23.3875C478.664 22.9795 479.588 22.7755 480.62 22.7755C481.076 22.7755 481.436 22.7995 481.7 22.8475C481.964 22.8715 482.228 22.9315 482.492 23.0275L482.456 27.8155C481.952 27.5995 481.52 27.4675 481.16 27.4195C480.824 27.3475 480.392 27.3115 479.864 27.3115C478.856 27.3115 478.016 27.5035 477.344 27.8875C476.696 28.2715 476.204 28.8355 475.868 29.5795C475.556 30.3235 475.4 31.2235 475.4 32.2795V41.3875H469.928ZM491.321 41.7835C489.689 41.7835 488.201 41.6035 486.857 41.2435C485.513 40.8835 484.373 40.3795 483.437 39.7315L484.841 36.1315C485.777 36.7075 486.809 37.1635 487.937 37.4995C489.089 37.8355 490.229 38.0035 491.357 38.0035C492.413 38.0035 493.193 37.8355 493.697 37.4995C494.201 37.1635 494.453 36.7075 494.453 36.1315C494.453 35.6515 494.285 35.2795 493.949 35.0155C493.637 34.7515 493.145 34.5595 492.473 34.4395L488.765 33.7555C487.205 33.4435 486.017 32.8675 485.201 32.0275C484.385 31.1875 483.977 30.0955 483.977 28.7515C483.977 27.5755 484.289 26.5435 484.913 25.6555C485.561 24.7435 486.485 24.0355 487.685 23.5315C488.885 23.0275 490.289 22.7755 491.897 22.7755C493.265 22.7755 494.561 22.9435 495.785 23.2795C497.009 23.6155 498.053 24.1315 498.917 24.8275L497.441 28.3195C496.697 27.7675 495.833 27.3235 494.849 26.9875C493.889 26.6515 492.965 26.4835 492.077 26.4835C490.925 26.4835 490.097 26.6755 489.593 27.0595C489.089 27.4195 488.837 27.8875 488.837 28.4635C488.837 28.8955 488.981 29.2555 489.269 29.5435C489.581 29.8315 490.049 30.0475 490.673 30.1915L494.417 30.8755C496.025 31.1635 497.249 31.7035 498.089 32.4955C498.929 33.2875 499.349 34.3795 499.349 35.7715C499.349 37.0435 499.013 38.1235 498.341 39.0115C497.669 39.8995 496.721 40.5835 495.497 41.0635C494.297 41.5435 492.905 41.7835 491.321 41.7835Z" fill="#2B3674"/>
<defs>
<linearGradient id="paint0_linear_42_5069" x1="224.693" y1="21.663" x2="241.088" y2="23.4097" gradientUnits="userSpaceOnUse">
<stop stop-color="#EE1A35"/>
<stop offset="1" stop-color="#FFEB47"/>
</linearGradient>
<linearGradient id="paint1_linear_42_5069" x1="224.827" y1="20.346" x2="241.222" y2="22.0927" gradientUnits="userSpaceOnUse">
<stop stop-color="#EE1A35"/>
<stop offset="1" stop-color="#FFEB47"/>
</linearGradient>
<linearGradient id="paint2_linear_42_5069" x1="222.768" y1="20.1266" x2="243.962" y2="22.3846" gradientUnits="userSpaceOnUse">
<stop stop-color="#FFEB47"/>
<stop offset="1" stop-color="#EE1A35"/>
</linearGradient>
<linearGradient id="paint3_linear_42_5069" x1="223.305" y1="26.9298" x2="241.965" y2="28.9178" gradientUnits="userSpaceOnUse">
<stop stop-color="#FFEB47"/>
<stop offset="1" stop-color="#EE1A35"/>
</linearGradient>
<linearGradient id="paint4_linear_42_5069" x1="223.962" y1="28.4568" x2="240.356" y2="30.2035" gradientUnits="userSpaceOnUse">
<stop stop-color="#EE1A35"/>
<stop offset="1" stop-color="#FFEB47"/>
</linearGradient>
<linearGradient id="paint5_linear_42_5069" x1="223.144" y1="28.3697" x2="241.806" y2="30.3579" gradientUnits="userSpaceOnUse">
<stop stop-color="#FFEB47"/>
<stop offset="1" stop-color="#EE1A35"/>
</linearGradient>
<linearGradient id="paint6_linear_42_5069" x1="220.054" y1="40.6097" x2="241.557" y2="42.9007" gradientUnits="userSpaceOnUse">
<stop stop-color="#FFEB47"/>
<stop offset="1" stop-color="#EE1A35"/>
</linearGradient>
<linearGradient id="paint7_linear_42_5069" x1="248.336" y1="21.9305" x2="213.972" y2="54.646" gradientUnits="userSpaceOnUse">
<stop stop-color="#FFEB47"/>
<stop offset="1" stop-color="#EE1A35"/>
</linearGradient>
<linearGradient id="paint8_linear_42_5069" x1="219.806" y1="42.9475" x2="241.31" y2="45.2385" gradientUnits="userSpaceOnUse">
<stop stop-color="#FFEB47"/>
<stop offset="1" stop-color="#EE1A35"/>
</linearGradient>
<linearGradient id="paint9_linear_42_5069" x1="249.318" y1="22.9673" x2="214.954" y2="55.6827" gradientUnits="userSpaceOnUse">
<stop stop-color="#FFEB47"/>
<stop offset="1" stop-color="#EE1A35"/>
</linearGradient>
<linearGradient id="paint10_linear_42_5069" x1="221.039" y1="28.7723" x2="242.284" y2="31.0357" gradientUnits="userSpaceOnUse">
<stop stop-color="#FFEB47"/>
<stop offset="1" stop-color="#EE1A35"/>
</linearGradient>
<linearGradient id="paint11_linear_42_5069" x1="219.996" y1="38.5904" x2="241.241" y2="40.8539" gradientUnits="userSpaceOnUse">
<stop stop-color="#EE1A35"/>
<stop offset="1" stop-color="#FFEB47"/>
</linearGradient>
<linearGradient id="paint12_linear_42_5069" x1="222.472" y1="34.7495" x2="241.133" y2="36.7377" gradientUnits="userSpaceOnUse">
<stop stop-color="#FFEB47"/>
<stop offset="1" stop-color="#EE1A35"/>
</linearGradient>
<linearGradient id="paint13_linear_42_5069" x1="220.429" y1="34.5319" x2="241.674" y2="36.7953" gradientUnits="userSpaceOnUse">
<stop stop-color="#FFEB47"/>
<stop offset="1" stop-color="#EE1A35"/>
</linearGradient>
<linearGradient id="paint14_linear_42_5069" x1="247.988" y1="21.565" x2="213.624" y2="54.2804" gradientUnits="userSpaceOnUse">
<stop stop-color="#FFEB47"/>
<stop offset="1" stop-color="#EE1A35"/>
</linearGradient>
<linearGradient id="paint15_linear_42_5069" x1="220.404" y1="34.7653" x2="241.649" y2="37.0287" gradientUnits="userSpaceOnUse">
<stop stop-color="#FFEB47"/>
<stop offset="1" stop-color="#EE1A35"/>
</linearGradient>
<linearGradient id="paint16_linear_42_5069" x1="222.599" y1="33.5352" x2="241.26" y2="35.5234" gradientUnits="userSpaceOnUse">
<stop stop-color="#FFEB47"/>
<stop offset="1" stop-color="#EE1A35"/>
</linearGradient>
<linearGradient id="paint17_linear_42_5069" x1="249.92" y1="23.596" x2="215.556" y2="56.3114" gradientUnits="userSpaceOnUse">
<stop stop-color="#FFEB47"/>
<stop offset="1" stop-color="#EE1A35"/>
</linearGradient>
<linearGradient id="paint18_linear_42_5069" x1="220.556" y1="33.3176" x2="241.801" y2="35.581" gradientUnits="userSpaceOnUse">
<stop stop-color="#FFEB47"/>
<stop offset="1" stop-color="#EE1A35"/>
</linearGradient>
<linearGradient id="paint19_linear_42_5069" x1="222.543" y1="20.3165" x2="245.307" y2="22.7417" gradientUnits="userSpaceOnUse">
<stop stop-color="#EE1A35"/>
<stop offset="1" stop-color="#FFEB47"/>
</linearGradient>
<linearGradient id="paint20_linear_42_5069" x1="210.822" y1="21.1309" x2="226.919" y2="21.1309" gradientUnits="userSpaceOnUse">
<stop stop-color="#FFEB47"/>
<stop offset="1" stop-color="#EE1A35"/>
</linearGradient>
<linearGradient id="paint21_linear_42_5069" x1="219.127" y1="21.7392" x2="218.01" y2="54.4019" gradientUnits="userSpaceOnUse">
<stop stop-color="#FFEB47"/>
<stop offset="1" stop-color="#EE1A35"/>
</linearGradient>
<linearGradient id="paint22_linear_42_5069" x1="214.464" y1="24.388" x2="228.462" y2="24.388" gradientUnits="userSpaceOnUse">
<stop stop-color="#FFEB47"/>
<stop offset="1" stop-color="#EE1A35"/>
</linearGradient>
<linearGradient id="paint23_linear_42_5069" x1="207.013" y1="33.2965" x2="216.143" y2="1.08822" gradientUnits="userSpaceOnUse">
<stop stop-color="#FFEB47"/>
<stop offset="1" stop-color="#EE1A35"/>
</linearGradient>
<linearGradient id="paint24_linear_42_5069" x1="230.502" y1="16.4263" x2="189.146" y2="20.8324" gradientUnits="userSpaceOnUse">
<stop stop-color="#FFEB47"/>
<stop offset="1" stop-color="#EE1A35"/>
</linearGradient>
<linearGradient id="paint25_linear_42_5069" x1="212.936" y1="19.9902" x2="196.618" y2="21.7288" gradientUnits="userSpaceOnUse">
<stop stop-color="#FFEB47"/>
<stop offset="1" stop-color="#EE1A35"/>
</linearGradient>
<linearGradient id="paint26_linear_42_5069" x1="212.837" y1="19.0335" x2="196.519" y2="20.772" gradientUnits="userSpaceOnUse">
<stop stop-color="#FFEB47"/>
<stop offset="1" stop-color="#EE1A35"/>
</linearGradient>
<linearGradient id="paint27_linear_42_5069" x1="218.788" y1="18.3995" x2="193.769" y2="21.065" gradientUnits="userSpaceOnUse">
<stop stop-color="#EE1A35"/>
<stop offset="1" stop-color="#FFEB47"/>
</linearGradient>
<linearGradient id="paint28_linear_42_5069" x1="214.452" y1="26.4386" x2="195.79" y2="28.4267" gradientUnits="userSpaceOnUse">
<stop stop-color="#FFEB47"/>
<stop offset="1" stop-color="#EE1A35"/>
</linearGradient>
<linearGradient id="paint29_linear_42_5069" x1="213.893" y1="28.9867" x2="197.575" y2="30.7252" gradientUnits="userSpaceOnUse">
<stop stop-color="#FFEB47"/>
<stop offset="1" stop-color="#EE1A35"/>
</linearGradient>
<linearGradient id="paint30_linear_42_5069" x1="214.71" y1="28.8996" x2="196.049" y2="30.8878" gradientUnits="userSpaceOnUse">
<stop stop-color="#EE1A35"/>
<stop offset="1" stop-color="#FFEB47"/>
</linearGradient>
<linearGradient id="paint31_linear_42_5069" x1="217.792" y1="42.7179" x2="201.015" y2="44.5053" gradientUnits="userSpaceOnUse">
<stop stop-color="#FFEB47"/>
<stop offset="1" stop-color="#EE1A35"/>
</linearGradient>
<linearGradient id="paint32_linear_42_5069" x1="218.23" y1="46.4344" x2="199.641" y2="48.4148" gradientUnits="userSpaceOnUse">
<stop stop-color="#FFEB47"/>
<stop offset="1" stop-color="#EE1A35"/>
</linearGradient>
<linearGradient id="paint33_linear_42_5069" x1="218.188" y1="46.4388" x2="201.411" y2="48.2262" gradientUnits="userSpaceOnUse">
<stop stop-color="#FFEB47"/>
<stop offset="1" stop-color="#EE1A35"/>
</linearGradient>
<linearGradient id="paint34_linear_42_5069" x1="217.88" y1="43.5142" x2="201.103" y2="45.3017" gradientUnits="userSpaceOnUse">
<stop stop-color="#FFEB47"/>
<stop offset="1" stop-color="#EE1A35"/>
</linearGradient>
<linearGradient id="paint35_linear_42_5069" x1="182.774" y1="37.2011" x2="233.039" y2="37.2011" gradientUnits="userSpaceOnUse">
<stop stop-color="#FFEB47"/>
<stop offset="1" stop-color="#EE1A35"/>
</linearGradient>
<linearGradient id="paint36_linear_42_5069" x1="215.305" y1="34.4308" x2="196.644" y2="36.419" gradientUnits="userSpaceOnUse">
<stop stop-color="#FFEB47"/>
<stop offset="1" stop-color="#EE1A35"/>
</linearGradient>
<linearGradient id="paint37_linear_42_5069" x1="216.937" y1="34.2964" x2="196.101" y2="36.5163" gradientUnits="userSpaceOnUse">
<stop stop-color="#FFEB47"/>
<stop offset="1" stop-color="#EE1A35"/>
</linearGradient>
<linearGradient id="paint38_linear_42_5069" x1="215.204" y1="33.5355" x2="196.543" y2="35.5236" gradientUnits="userSpaceOnUse">
<stop stop-color="#FFEB47"/>
<stop offset="1" stop-color="#EE1A35"/>
</linearGradient>
<linearGradient id="paint39_linear_42_5069" x1="216.839" y1="33.3613" x2="196.002" y2="35.5812" gradientUnits="userSpaceOnUse">
<stop stop-color="#FFEB47"/>
<stop offset="1" stop-color="#EE1A35"/>
</linearGradient>
<linearGradient id="paint40_linear_42_5069" x1="84.1409" y1="35.7188" x2="231.804" y2="35.7188" gradientUnits="userSpaceOnUse">
<stop stop-color="#FFEB47"/>
<stop offset="1" stop-color="#EE1A35"/>
</linearGradient>
</defs>
</svg>
